<svg xmlns="http://www.w3.org/2000/svg" viewBox="0 0 40.5 29.68"><defs><style>.cls-1{fill:#082150;}.cls-2{fill:#0b9547;}</style></defs><title>MIB logo icon</title><g id="Layer_2" data-name="Layer 2"><g id="Isolation_Mode" data-name="Isolation Mode"><path class="cls-1" d="M22.87,3.38A37.11,37.11,0,0,1,26.64,0a36.89,36.89,0,0,1,3.77,3.38A35.31,35.31,0,0,1,40.5,28.12c0,.52,0,1,0,1.56H28.63l7.62-4.75a28.11,28.11,0,0,0-3.89-12,27.92,27.92,0,0,0-5.72-6.79A28,28,0,0,0,17,24.93l3.22,4.75H12.82c0-.52,0-1,0-1.56A35.31,35.31,0,0,1,22.87,3.38Z"/><path class="cls-2" d="M17.63,3.38A36.62,36.62,0,0,0,13.86,0a36.89,36.89,0,0,0-3.77,3.38A35.32,35.32,0,0,0,0,28.12c0,.52,0,1,0,1.56H11.87L4.25,24.93A28,28,0,0,1,13.86,6.14a27.92,27.92,0,0,1,5.72,6.79,28.12,28.12,0,0,1,3.89,12l-3.22,4.75h7.43c0-.52,0-1,0-1.56A35.32,35.32,0,0,0,17.63,3.38Z"/></g></g></svg>